<svg xmlns="http://www.w3.org/2000/svg" xmlns:xlink="http://www.w3.org/1999/xlink" width="500" zoomAndPan="magnify" viewBox="0 0 375 374.999991" height="500" preserveAspectRatio="xMidYMid meet" version="1.2"><defs><clipPath id="7767f62131"><path d="M 0 0 L 187.5 0 L 187.5 375 L 0 375 Z M 0 0 "/></clipPath><clipPath id="55c5f0d2be"><path d="M 93.75 375 L 0 306.390625 L 0 68.609375 L 93.75 0 L 187.5 68.609375 L 187.5 306.390625 Z M 93.75 375 "/></clipPath><clipPath id="6a95fffb95"><path d="M 187.5 0 L 375 0 L 375 375 L 187.5 375 Z M 187.5 0 "/></clipPath><clipPath id="c99605c95b"><path d="M 281.25 375 L 187.5 306.390625 L 187.5 68.609375 L 281.25 0 L 375 68.609375 L 375 306.390625 Z M 281.25 375 "/></clipPath><clipPath id="206d1bb112"><path d="M 59.460938 134.578125 L 315.367188 134.578125 L 315.367188 240.414062 L 59.460938 240.414062 Z M 59.460938 134.578125 "/></clipPath><clipPath id="b2b6054feb"><path d="M 242.050781 240.414062 L 315.367188 187.496094 L 242.050781 134.578125 L 242.050781 170.386719 L 132.941406 170.386719 L 132.941406 134.578125 L 59.625 187.496094 L 132.941406 240.414062 L 132.941406 204.609375 L 242.050781 204.609375 Z M 242.050781 240.414062 "/></clipPath></defs><g id="ea45a4678e"><g clip-rule="nonzero" clip-path="url(#7767f62131)"><g clip-rule="nonzero" clip-path="url(#55c5f0d2be)"><path style=" stroke:none;fill-rule:nonzero;fill:#e1224b;fill-opacity:1;" d="M 187.5 375 L 0 375 L 0 0 L 187.5 0 Z M 187.5 375 "/></g></g><g clip-rule="nonzero" clip-path="url(#6a95fffb95)"><g clip-rule="nonzero" clip-path="url(#c99605c95b)"><path style=" stroke:none;fill-rule:nonzero;fill:#e1224b;fill-opacity:1;" d="M 375 375 L 187.5 375 L 187.5 0 L 375 0 Z M 375 375 "/></g></g><g clip-rule="nonzero" clip-path="url(#206d1bb112)"><g clip-rule="nonzero" clip-path="url(#b2b6054feb)"><path style=" stroke:none;fill-rule:nonzero;fill:#ffffff;fill-opacity:1;" d="M 315.367188 240.414062 L 59.460938 240.414062 L 59.460938 134.578125 L 315.367188 134.578125 Z M 315.367188 240.414062 "/></g></g></g></svg>